PathFileType	4	(X/Y/Z)	C:\Users\WrightLab\Desktop\Jo\P4V115.trc
DataRate	CameraRate	NumFrames	NumMarkers	Units	OrigDataRate	OrigDataStartFrame	OrigNumFrames
100.00	100.00	       17	19	mm	100.00	319	       637
Frame#	Time	Headset_Front			Headset_Back			Headset_Left			Headset_Right			Left_Shoulder			Right_Shoulder			Sternum			C7			Left Elbow			Right Elbow			Left Wrist			Right Wrist			Left ASIS			Right ASIS			S2			Left Knee			Right Knee			Left Ankle			Right Ankle			
		X1	Y1	Z1	X2	Y2	Z2	X3	Y3	Z3	X4	Y4	Z4	X5	Y5	Z5	X6	Y6	Z6	X7	Y7	Z7	X8	Y8	Z8	X9	Y9	Z9	X10	Y10	Z10	X11	Y11	Z11	X12	Y12	Z12	X13	Y13	Z13	X14	Y14	Z14	X15	Y15	Z15	X16	Y16	Z16	X17	Y17	Z17	X18	Y18	Z18	X19	Y19	Z19	

319	3.180	-351.43475	1641.79724	116.74705	-314.22061	1619.84973	176.56354							-318.58386	1478.36951	-133.06615	-597.68756	1496.89111	-6.49213	-406.03488	1428.04468	27.05840	-484.58963	1519.45276	-123.05806	-189.14865	1129.47949	-138.85100	-759.00800	1160.95093	42.71313	-179.77686	883.64056	55.72858	-723.57220	895.91107	188.09520	-322.06711	966.26886	-78.97419	-580.01660	1024.63647	121.07629	-548.75507	1024.88611	-138.07172	-415.84833	494.94379	-151.71953	-549.54602	571.04315	231.54903	-639.02850	148.42468	-459.59848	-533.13666	53.43786	245.81126	
320	3.190	-348.31973	1644.87415	127.35904	-311.66699	1622.37415	188.47110							-315.08817	1481.50476	-121.75052	-594.27423	1498.49426	6.58899	-401.76675	1429.93799	38.99010	-481.82559	1520.99780	-111.44886	-187.52711	1131.50635	-132.60757	-753.44348	1162.06885	58.43196	-174.25206	882.80762	59.01598	-716.69879	897.28192	203.22049	-318.55957	966.66595	-68.11785	-576.14886	1027.22913	132.36465	-543.86902	1025.46338	-126.08913	-405.73825	492.81281	-129.89969	-548.33356	572.63031	243.01077	-637.13727	162.62987	-447.27426	-533.21960	54.10146	247.06416	
321	3.200	-345.62585	1648.14941	138.20024										-312.99109	1483.68909	-112.34305	-590.70703	1500.23108	18.61143	-396.90393	1431.86584	48.65131	-479.52701	1523.61938	-100.18321	-186.01489	1133.39771	-126.62238	-747.77795	1163.33948	74.05389	-169.60068	882.71576	62.35524	-708.82123	898.04657	218.60782	-314.03720	967.71216	-57.08285	-572.72522	1029.89758	144.05678	-539.22540	1025.83948	-116.03701	-395.55716	490.96948	-106.85781	-548.57294	573.48907	252.88635	-636.03381	177.78104	-432.64136	-533.14972	54.15532	247.72351	
322	3.210	-341.60303	1650.71912	148.15117										-310.51083	1486.13501	-103.49703	-586.42365	1502.01416	31.04158	-393.74179	1433.79272	59.39284	-477.11307	1525.49731	-89.68454	-183.41560	1136.14612	-120.79449	-741.73950	1164.51794	89.63387	-165.08202	882.99542	65.05755	-700.61981	900.35437	233.63106	-310.12057	968.24353	-45.31891	-569.44556	1031.82312	155.13947	-534.72040	1027.12854	-106.64789	-384.49701	490.57758	-86.07324	-548.00385	573.23761	260.90121	-632.00189	193.30904	-416.50058	-533.03906	54.36270	248.45804	
323	3.220	-338.07370	1653.04407	158.38696										-308.45221	1488.89648	-94.02666	-582.32861	1503.39905	43.40689	-389.86893	1435.68103	69.25942	-474.60034	1527.23572	-78.66502	-181.87076	1138.34729	-114.42531	-736.08453	1166.00244	105.06304	-159.50256	883.40411	68.46900	-690.33972	900.92517	248.03595	-306.64786	970.15173	-34.87543	-565.94128	1033.88501	165.98279	-530.51196	1028.32373	-97.28876	-372.15869	490.96512	-64.34945	-545.45599	572.24091	266.80466	-628.17987	210.44957	-397.80313	-532.89948	54.47956	248.97258	
324	3.230	-334.25351	1655.01685	168.25911										-305.01718	1490.63257	-83.53092	-578.18109	1505.26978	55.23817	-384.72198	1437.36169	78.74346	-471.85825	1529.73743	-67.89586	-179.96732	1140.26904	-110.56345	-729.75122	1166.87366	121.41400	-154.64093	884.25391	70.84399	-680.35590	903.03204	263.36707	-302.50549	972.80743	-24.81017	-562.10071	1035.58484	176.25026	-526.43677	1029.43152	-85.76841	-360.40198	491.69702	-42.82950	-541.57019	571.40704	271.58350	-623.93341	225.96138	-377.41995	-532.68994	54.41402	249.21463	
325	3.240	-330.43027	1657.00806	178.24809										-302.77817	1492.99536	-75.99738	-573.90576	1507.25317	66.84600	-380.56711	1439.09851	88.24332	-468.91342	1531.52563	-57.52958	-177.31154	1142.77930	-104.99427	-723.63434	1168.85034	136.84242	-149.38206	885.06976	72.88960	-670.45172	905.78064	279.02753	-298.81857	974.73456	-16.83150	-558.44379	1036.94104	187.47726	-522.80060	1031.40369	-76.52261	-348.65277	493.61322	-23.08127	-537.16339	569.52014	275.12180	-618.37885	239.73517	-355.07370	-532.49371	54.53259	249.57292	
326	3.250	-327.62759	1659.25061	188.35182										-300.74625	1494.91016	-68.71445	-569.94208	1509.04626	77.91825	-375.63904	1441.43018	97.55081	-466.18185	1533.46692	-47.01328	-174.25525	1145.29297	-99.31602	-716.96149	1170.35449	152.59146	-145.61319	885.66852	75.15039	-660.14636	907.99792	294.06293	-294.90613	978.40686	-6.07259	-554.23975	1038.54858	197.74277	-519.13904	1033.29004	-66.51344	-336.13510	495.50085	-3.17690	-533.87756	568.98926	279.16760	-613.32880	251.69691	-332.52936	-532.10840	54.12946	249.87854	
327	3.260	-322.90970	1660.48718	197.53810										-298.30518	1497.88867	-59.51789	-565.45673	1510.97046	89.38392	-371.75247	1443.69116	106.62446	-463.26340	1535.49280	-36.75685	-172.35365	1147.16028	-94.40723	-710.50635	1172.19849	168.07896	-140.38350	888.06244	78.32377	-649.36517	909.27271	308.44028	-290.81015	981.46063	3.25717	-549.51495	1040.03406	207.80125	-515.60437	1035.02515	-56.25354	-323.99203	498.30298	16.07916	-530.54431	569.17773	283.73679	-608.24890	261.26132	-310.23242	-531.97101	54.04026	250.10172	
328	3.270	-319.13791	1662.47681	207.32611										-295.65067	1499.77014	-52.34853	-560.91876	1512.76770	100.37611	-366.23181	1445.44275	115.22060	-460.39536	1537.32874	-27.10196	-169.88043	1150.15356	-90.14230	-703.73431	1173.71887	184.38647	-135.30998	888.54071	81.07650	-638.34235	911.70508	323.43884	-286.98016	984.38635	11.83245	-544.71576	1041.64917	217.82388	-512.07965	1036.89722	-46.38282	-311.80173	500.39536	33.81776	-527.84424	569.25006	289.91937	-603.67572	269.47607	-288.92999	-531.98993	54.23459	250.47498	
329	3.280	-315.87808	1664.44861	217.10208										-292.44809	1501.62476	-43.57647	-556.75470	1514.69507	111.92754	-361.62967	1447.45154	123.69127	-457.40985	1539.33936	-16.59023	-166.76741	1151.84338	-85.64533	-696.84955	1175.66821	200.16742	-130.71454	890.78790	83.53059	-626.32855	914.44031	337.92606	-283.25500	987.25476	20.78971	-539.59821	1043.44153	228.12239	-508.69073	1038.74329	-37.27192	-298.98584	505.49139	52.18681	-525.12848	570.22485	297.55249	-596.80688	274.64160	-266.04547	-531.82361	54.71307	250.84579	
330	3.290	-310.35815	1665.87244	225.70871										-290.11435	1503.72229	-36.10087	-551.95099	1516.50635	122.50306	-357.46353	1449.83228	132.56784	-454.40390	1541.45898	-6.99422	-164.66675	1154.14832	-81.86481	-689.28534	1177.65503	215.80208	-126.37224	892.52448	86.65588	-614.96320	916.82898	353.08044	-279.01938	989.77350	29.09984	-534.78888	1045.00012	238.10747	-505.16553	1040.70105	-28.09452	-286.40207	510.12100	70.62422	-522.80975	570.27704	304.72815	-589.46161	278.43243	-243.48628	-531.68860	54.77954	250.94870	
331	3.300	-307.53610	1668.26416	235.62894										-287.49829	1505.68872	-28.15452	-547.30658	1518.62622	133.38367	-351.82764	1451.57349	140.72871	-451.27863	1543.45239	2.25321	-162.36540	1156.18921	-77.27355	-682.07397	1179.71924	230.77000	-122.81446	894.00610	88.56950	-602.39850	919.98743	367.61566	-275.08679	993.16516	37.82509	-529.57770	1046.43115	248.28221	-501.94046	1042.01843	-18.59362	-273.96844	514.45197	87.45058	-520.42657	570.35065	311.92181	-581.45331	280.63089	-220.41295	-531.30017	54.69958	250.98572	
332	3.310	-303.11981	1669.96106	244.68428										-284.68701	1507.23706	-20.35998	-543.17480	1520.59595	144.19542	-347.70862	1453.63354	149.21770	-447.91653	1545.68835	11.80712	-161.34631	1157.82690	-73.04345	-674.81677	1181.76978	245.83455	-118.80585	895.02979	91.36966	-589.73889	923.09625	381.42487	-271.69397	995.50037	43.92852	-523.01459	1048.02124	258.37933	-498.54843	1044.29260	-10.12684	-261.08585	519.50677	104.71864	-517.72852	569.96686	318.92929	-571.53687	281.34906	-196.17076	-531.10144	54.85898	251.06874	
333	3.320	-298.20572	1671.70288	253.59727										-281.33362	1509.00574	-12.59640	-537.67761	1522.69104	154.29979	-342.38950	1455.32056	157.20842	-444.56055	1547.55359	22.22115	-158.51727	1159.99646	-69.20420	-667.38464	1184.47168	260.78448	-114.45812	896.55713	94.11152	-577.73267	926.93842	395.90216	-268.01028	998.00012	50.97056	-516.07593	1050.09058	270.05869	-495.46497	1045.18408	0.93494	-248.04221	525.98987	122.24035	-514.72021	569.67712	323.19196	-561.23132	280.73346	-172.46097	-530.89246	55.03973	251.10185	
334	3.330	-293.12189	1673.04602	262.31903										-278.66534	1511.52551	-5.98349	-533.17529	1524.92603	165.14674	-337.64734	1457.19250	165.21956	-441.15887	1549.37878	31.29720	-156.85178	1161.73755	-65.76839	-659.74512	1186.63623	275.06998	-110.74471	898.56598	96.86441	-564.54193	930.13397	409.85538	-264.28409	1000.47083	57.41166	-514.09967	1049.50110	278.54416	-492.29730	1046.12964	9.94709	-234.60886	532.50568	140.18613	-510.86914	568.83209	326.47824	-550.07153	277.78003	-147.23180	-530.00775	55.12495	251.12523	
335	3.340	-289.00790	1674.73303	271.41495										-276.26236	1512.76880	1.04956	-527.83936	1526.78235	175.22774	-332.66855	1458.99780	173.55681	-437.65353	1551.32129	40.40723	-156.45859	1163.72351	-62.01018	-652.13959	1188.95837	289.68417	-105.27610	900.22241	98.00103	-551.83081	934.24957	423.89075	-260.39288	1002.93854	65.00348	-508.42899	1050.72119	287.96136	-489.05386	1047.24023	19.05657	-221.48767	539.18378	156.39972	-507.10141	568.24133	329.77029	-538.48651	274.99915	-122.67605	-529.50372	55.51611	251.09865	
